<mxfile host="app.diagrams.net" modified="2024-03-10T21:05:25.348Z" agent="Mozilla/5.0 (Windows NT 10.0; Win64; x64; rv:123.0) Gecko/20100101 Firefox/123.0" etag="K-NMYEDb4b21VbJcK4yV" version="24.0.4" type="github">
  <diagram name="Seite-1" id="O34IK1DBgTGSbyAh4mBq">
    <mxGraphModel dx="989" dy="545" grid="1" gridSize="10" guides="1" tooltips="1" connect="1" arrows="1" fold="1" page="1" pageScale="1" pageWidth="827" pageHeight="1169" math="0" shadow="0">
      <root>
        <mxCell id="0" />
        <mxCell id="1" parent="0" />
        <mxCell id="JOM45pb3-wzvypwPHvmO-32" style="edgeStyle=orthogonalEdgeStyle;rounded=0;orthogonalLoop=1;jettySize=auto;html=1;exitX=0;exitY=0.5;exitDx=0;exitDy=0;" edge="1" parent="1" source="JOM45pb3-wzvypwPHvmO-5">
          <mxGeometry relative="1" as="geometry">
            <mxPoint x="160" y="600" as="targetPoint" />
          </mxGeometry>
        </mxCell>
        <mxCell id="JOM45pb3-wzvypwPHvmO-1" value="Dorfbewohner" style="swimlane;fontStyle=0;childLayout=stackLayout;horizontal=1;startSize=30;horizontalStack=0;resizeParent=1;resizeParentMax=0;resizeLast=0;collapsible=1;marginBottom=0;whiteSpace=wrap;html=1;" vertex="1" parent="1">
          <mxGeometry x="200" y="160" width="140" height="180" as="geometry" />
        </mxCell>
        <mxCell id="JOM45pb3-wzvypwPHvmO-2" value="&lt;div&gt;Name (String)&lt;/div&gt;&lt;div&gt;&lt;br&gt;&lt;/div&gt;" style="text;strokeColor=none;fillColor=none;align=left;verticalAlign=middle;spacingLeft=4;spacingRight=4;overflow=hidden;points=[[0,0.5],[1,0.5]];portConstraint=eastwest;rotatable=0;whiteSpace=wrap;html=1;" vertex="1" parent="JOM45pb3-wzvypwPHvmO-1">
          <mxGeometry y="30" width="140" height="30" as="geometry" />
        </mxCell>
        <mxCell id="JOM45pb3-wzvypwPHvmO-3" value="Muskelkraft (double)" style="text;strokeColor=none;fillColor=none;align=left;verticalAlign=middle;spacingLeft=4;spacingRight=4;overflow=hidden;points=[[0,0.5],[1,0.5]];portConstraint=eastwest;rotatable=0;whiteSpace=wrap;html=1;" vertex="1" parent="JOM45pb3-wzvypwPHvmO-1">
          <mxGeometry y="60" width="140" height="30" as="geometry" />
        </mxCell>
        <mxCell id="JOM45pb3-wzvypwPHvmO-4" value="IQ (int)" style="text;strokeColor=none;fillColor=none;align=left;verticalAlign=middle;spacingLeft=4;spacingRight=4;overflow=hidden;points=[[0,0.5],[1,0.5]];portConstraint=eastwest;rotatable=0;whiteSpace=wrap;html=1;" vertex="1" parent="JOM45pb3-wzvypwPHvmO-1">
          <mxGeometry y="90" width="140" height="30" as="geometry" />
        </mxCell>
        <mxCell id="JOM45pb3-wzvypwPHvmO-5" value="ZaubertrankTrinken();&lt;br&gt;FischAufheben();&lt;br&gt;FischWerfen();" style="rounded=0;whiteSpace=wrap;html=1;" vertex="1" parent="JOM45pb3-wzvypwPHvmO-1">
          <mxGeometry y="120" width="140" height="60" as="geometry" />
        </mxCell>
        <mxCell id="JOM45pb3-wzvypwPHvmO-6" value="&lt;div&gt;Barden&lt;/div&gt;" style="swimlane;fontStyle=0;childLayout=stackLayout;horizontal=1;startSize=30;horizontalStack=0;resizeParent=1;resizeParentMax=0;resizeLast=0;collapsible=1;marginBottom=0;whiteSpace=wrap;html=1;" vertex="1" parent="1">
          <mxGeometry x="400" y="280" width="140" height="30" as="geometry" />
        </mxCell>
        <mxCell id="JOM45pb3-wzvypwPHvmO-12" style="edgeStyle=orthogonalEdgeStyle;rounded=0;orthogonalLoop=1;jettySize=auto;html=1;entryX=1.001;entryY=0.073;entryDx=0;entryDy=0;entryPerimeter=0;" edge="1" parent="1" source="JOM45pb3-wzvypwPHvmO-10" target="JOM45pb3-wzvypwPHvmO-1">
          <mxGeometry relative="1" as="geometry" />
        </mxCell>
        <mxCell id="JOM45pb3-wzvypwPHvmO-13" value="extends" style="edgeLabel;html=1;align=center;verticalAlign=middle;resizable=0;points=[];" vertex="1" connectable="0" parent="JOM45pb3-wzvypwPHvmO-12">
          <mxGeometry x="-0.1142" y="1" relative="1" as="geometry">
            <mxPoint as="offset" />
          </mxGeometry>
        </mxCell>
        <mxCell id="JOM45pb3-wzvypwPHvmO-40" style="edgeStyle=orthogonalEdgeStyle;rounded=0;orthogonalLoop=1;jettySize=auto;html=1;entryX=0.5;entryY=1;entryDx=0;entryDy=0;" edge="1" parent="1" source="JOM45pb3-wzvypwPHvmO-14" target="JOM45pb3-wzvypwPHvmO-37">
          <mxGeometry relative="1" as="geometry" />
        </mxCell>
        <mxCell id="JOM45pb3-wzvypwPHvmO-41" value="braut" style="edgeLabel;html=1;align=center;verticalAlign=middle;resizable=0;points=[];" vertex="1" connectable="0" parent="JOM45pb3-wzvypwPHvmO-40">
          <mxGeometry x="-0.1833" relative="1" as="geometry">
            <mxPoint as="offset" />
          </mxGeometry>
        </mxCell>
        <mxCell id="JOM45pb3-wzvypwPHvmO-14" value="Druiden" style="swimlane;fontStyle=0;childLayout=stackLayout;horizontal=1;startSize=30;horizontalStack=0;resizeParent=1;resizeParentMax=0;resizeLast=0;collapsible=1;marginBottom=0;whiteSpace=wrap;html=1;" vertex="1" parent="1">
          <mxGeometry x="400" y="160" width="140" height="90" as="geometry" />
        </mxCell>
        <mxCell id="JOM45pb3-wzvypwPHvmO-10" value="ZaubertrankBrauen();" style="rounded=0;whiteSpace=wrap;html=1;" vertex="1" parent="JOM45pb3-wzvypwPHvmO-14">
          <mxGeometry y="30" width="140" height="60" as="geometry" />
        </mxCell>
        <mxCell id="JOM45pb3-wzvypwPHvmO-15" value="Musizieren();" style="rounded=0;whiteSpace=wrap;html=1;" vertex="1" parent="1">
          <mxGeometry x="400" y="310" width="140" height="60" as="geometry" />
        </mxCell>
        <mxCell id="JOM45pb3-wzvypwPHvmO-16" style="edgeStyle=orthogonalEdgeStyle;rounded=0;orthogonalLoop=1;jettySize=auto;html=1;entryX=0.994;entryY=0.071;entryDx=0;entryDy=0;entryPerimeter=0;exitX=0;exitY=0.5;exitDx=0;exitDy=0;" edge="1" parent="1" source="JOM45pb3-wzvypwPHvmO-15" target="JOM45pb3-wzvypwPHvmO-1">
          <mxGeometry relative="1" as="geometry">
            <mxPoint x="400" y="219.48" as="sourcePoint" />
            <mxPoint x="340" y="172.48" as="targetPoint" />
          </mxGeometry>
        </mxCell>
        <mxCell id="JOM45pb3-wzvypwPHvmO-17" value="extends" style="edgeLabel;html=1;align=center;verticalAlign=middle;resizable=0;points=[];" vertex="1" connectable="0" parent="JOM45pb3-wzvypwPHvmO-16">
          <mxGeometry x="-0.1142" y="1" relative="1" as="geometry">
            <mxPoint as="offset" />
          </mxGeometry>
        </mxCell>
        <mxCell id="JOM45pb3-wzvypwPHvmO-18" value="Häuptlinge" style="swimlane;fontStyle=0;childLayout=stackLayout;horizontal=1;startSize=30;horizontalStack=0;resizeParent=1;resizeParentMax=0;resizeLast=0;collapsible=1;marginBottom=0;whiteSpace=wrap;html=1;" vertex="1" parent="1">
          <mxGeometry x="400" y="400" width="140" height="30" as="geometry" />
        </mxCell>
        <mxCell id="JOM45pb3-wzvypwPHvmO-19" value="SchildträgerRufen();" style="rounded=0;whiteSpace=wrap;html=1;" vertex="1" parent="1">
          <mxGeometry x="400" y="430" width="140" height="60" as="geometry" />
        </mxCell>
        <mxCell id="JOM45pb3-wzvypwPHvmO-20" style="edgeStyle=orthogonalEdgeStyle;rounded=0;orthogonalLoop=1;jettySize=auto;html=1;entryX=1.008;entryY=0.065;entryDx=0;entryDy=0;entryPerimeter=0;exitX=0;exitY=0.5;exitDx=0;exitDy=0;" edge="1" parent="1" source="JOM45pb3-wzvypwPHvmO-19" target="JOM45pb3-wzvypwPHvmO-1">
          <mxGeometry relative="1" as="geometry">
            <mxPoint x="410" y="350" as="sourcePoint" />
            <mxPoint x="349" y="183" as="targetPoint" />
            <Array as="points">
              <mxPoint x="370" y="460" />
              <mxPoint x="370" y="172" />
            </Array>
          </mxGeometry>
        </mxCell>
        <mxCell id="JOM45pb3-wzvypwPHvmO-21" value="extends" style="edgeLabel;html=1;align=center;verticalAlign=middle;resizable=0;points=[];" vertex="1" connectable="0" parent="JOM45pb3-wzvypwPHvmO-20">
          <mxGeometry x="-0.1142" y="1" relative="1" as="geometry">
            <mxPoint as="offset" />
          </mxGeometry>
        </mxCell>
        <mxCell id="JOM45pb3-wzvypwPHvmO-23" value="Tiere" style="swimlane;fontStyle=0;childLayout=stackLayout;horizontal=1;startSize=30;horizontalStack=0;resizeParent=1;resizeParentMax=0;resizeLast=0;collapsible=1;marginBottom=0;whiteSpace=wrap;html=1;" vertex="1" parent="1">
          <mxGeometry x="200" y="400" width="140" height="30" as="geometry" />
        </mxCell>
        <mxCell id="JOM45pb3-wzvypwPHvmO-24" value="LautGeben();" style="rounded=0;whiteSpace=wrap;html=1;" vertex="1" parent="1">
          <mxGeometry x="200" y="430" width="140" height="60" as="geometry" />
        </mxCell>
        <mxCell id="JOM45pb3-wzvypwPHvmO-26" style="edgeStyle=orthogonalEdgeStyle;rounded=0;orthogonalLoop=1;jettySize=auto;html=1;entryX=0.5;entryY=1;entryDx=0;entryDy=0;" edge="1" parent="1" source="JOM45pb3-wzvypwPHvmO-25" target="JOM45pb3-wzvypwPHvmO-24">
          <mxGeometry relative="1" as="geometry" />
        </mxCell>
        <mxCell id="JOM45pb3-wzvypwPHvmO-27" value="extends" style="edgeLabel;html=1;align=center;verticalAlign=middle;resizable=0;points=[];" vertex="1" connectable="0" parent="JOM45pb3-wzvypwPHvmO-26">
          <mxGeometry x="0.1476" relative="1" as="geometry">
            <mxPoint as="offset" />
          </mxGeometry>
        </mxCell>
        <mxCell id="JOM45pb3-wzvypwPHvmO-25" value="Hunde" style="swimlane;fontStyle=0;childLayout=stackLayout;horizontal=1;startSize=30;horizontalStack=0;resizeParent=1;resizeParentMax=0;resizeLast=0;collapsible=1;marginBottom=0;whiteSpace=wrap;html=1;" vertex="1" parent="1">
          <mxGeometry x="200" y="550" width="140" height="30" as="geometry" />
        </mxCell>
        <mxCell id="JOM45pb3-wzvypwPHvmO-29" value="Fische" style="swimlane;fontStyle=0;childLayout=stackLayout;horizontal=1;startSize=30;horizontalStack=0;resizeParent=1;resizeParentMax=0;resizeLast=0;collapsible=1;marginBottom=0;whiteSpace=wrap;html=1;" vertex="1" parent="1">
          <mxGeometry x="400" y="550" width="140" height="30" as="geometry" />
        </mxCell>
        <mxCell id="JOM45pb3-wzvypwPHvmO-30" style="edgeStyle=orthogonalEdgeStyle;rounded=0;orthogonalLoop=1;jettySize=auto;html=1;entryX=0.5;entryY=1;entryDx=0;entryDy=0;exitX=0.5;exitY=0;exitDx=0;exitDy=0;" edge="1" parent="1" source="JOM45pb3-wzvypwPHvmO-29" target="JOM45pb3-wzvypwPHvmO-24">
          <mxGeometry relative="1" as="geometry">
            <mxPoint x="280" y="560" as="sourcePoint" />
            <mxPoint x="280" y="500" as="targetPoint" />
          </mxGeometry>
        </mxCell>
        <mxCell id="JOM45pb3-wzvypwPHvmO-31" value="extends" style="edgeLabel;html=1;align=center;verticalAlign=middle;resizable=0;points=[];" vertex="1" connectable="0" parent="JOM45pb3-wzvypwPHvmO-30">
          <mxGeometry x="0.1476" relative="1" as="geometry">
            <mxPoint as="offset" />
          </mxGeometry>
        </mxCell>
        <mxCell id="JOM45pb3-wzvypwPHvmO-33" value="" style="endArrow=classic;html=1;rounded=0;" edge="1" parent="1">
          <mxGeometry width="50" height="50" relative="1" as="geometry">
            <mxPoint x="160" y="600" as="sourcePoint" />
            <mxPoint x="470.4761904761905" y="600" as="targetPoint" />
          </mxGeometry>
        </mxCell>
        <mxCell id="JOM45pb3-wzvypwPHvmO-35" value="bezieht sich auf &amp;gt;" style="edgeLabel;html=1;align=center;verticalAlign=middle;resizable=0;points=[];" vertex="1" connectable="0" parent="JOM45pb3-wzvypwPHvmO-33">
          <mxGeometry x="0.0684" y="-1" relative="1" as="geometry">
            <mxPoint as="offset" />
          </mxGeometry>
        </mxCell>
        <mxCell id="JOM45pb3-wzvypwPHvmO-34" value="" style="endArrow=classic;html=1;rounded=0;entryX=0.5;entryY=1;entryDx=0;entryDy=0;" edge="1" parent="1" target="JOM45pb3-wzvypwPHvmO-29">
          <mxGeometry width="50" height="50" relative="1" as="geometry">
            <mxPoint x="470" y="600" as="sourcePoint" />
            <mxPoint x="560" y="590" as="targetPoint" />
          </mxGeometry>
        </mxCell>
        <mxCell id="JOM45pb3-wzvypwPHvmO-36" value="Römer" style="swimlane;fontStyle=0;childLayout=stackLayout;horizontal=1;startSize=30;horizontalStack=0;resizeParent=1;resizeParentMax=0;resizeLast=0;collapsible=1;marginBottom=0;whiteSpace=wrap;html=1;" vertex="1" parent="1">
          <mxGeometry x="300" y="620" width="140" height="30" as="geometry" />
        </mxCell>
        <mxCell id="JOM45pb3-wzvypwPHvmO-38" style="edgeStyle=orthogonalEdgeStyle;rounded=0;orthogonalLoop=1;jettySize=auto;html=1;entryX=0.5;entryY=0;entryDx=0;entryDy=0;" edge="1" parent="1" source="JOM45pb3-wzvypwPHvmO-37" target="JOM45pb3-wzvypwPHvmO-1">
          <mxGeometry relative="1" as="geometry" />
        </mxCell>
        <mxCell id="JOM45pb3-wzvypwPHvmO-39" value="wird getrunken" style="edgeLabel;html=1;align=center;verticalAlign=middle;resizable=0;points=[];" vertex="1" connectable="0" parent="JOM45pb3-wzvypwPHvmO-38">
          <mxGeometry x="0.1104" relative="1" as="geometry">
            <mxPoint as="offset" />
          </mxGeometry>
        </mxCell>
        <mxCell id="JOM45pb3-wzvypwPHvmO-37" value="Zaubertrank" style="swimlane;fontStyle=0;childLayout=stackLayout;horizontal=1;startSize=30;horizontalStack=0;resizeParent=1;resizeParentMax=0;resizeLast=0;collapsible=1;marginBottom=0;whiteSpace=wrap;html=1;" vertex="1" parent="1">
          <mxGeometry x="400" y="90" width="140" height="30" as="geometry" />
        </mxCell>
      </root>
    </mxGraphModel>
  </diagram>
</mxfile>
